PathFileType   4   (X/Y/Z)
DataRate	CameraRate	NumFrames	NumMarkers	Units	OrigDataRate	OrigDataStartFrame	OrigNumFrames
120.0	120.0	8	37	mm	120.0	62	122
Frame#	Time	midhip	hip_r	hip_l	knee_r	knee_l	ankle_r	ankle_l	midasis	asis_r	asis_l	psis_r	psis_l	epicondLat_r	epicondLat_l	epicondMed_r	epicondMed_l	malleolusLat_r	malleolusLat_l	malleolusMedv_r	malleolusMedv_l	neck	subclavicle_r	subclavicle_l	sternalnotch	xyphoidprocess	thighwand_r	thighwand_l	upperleg1_r	upperleg1_l	upperleg2_r	upperleg2_l	shankwand_r	shankwand_l	lowerleg1_r	lowerleg1_l	toe_r	toe_l
 	 	X1	Y1	Z1	X2	Y2	Z2	X3	Y3	Z3	X4	Y4	Z4	X5	Y5	Z5	X6	Y6	Z6	X7	Y7	Z7	X8	Y8	Z8	X9	Y9	Z9	X10	Y10	Z10	X11	Y11	Z11	X12	Y12	Z12	X13	Y13	Z13	X14	Y14	Z14	X15	Y15	Z15	X16	Y16	Z16	X17	Y17	Z17	X18	Y18	Z18	X19	Y19	Z19	X20	Y20	Z20	X21	Y21	Z21	X22	Y22	Z22	X23	Y23	Z23	X24	Y24	Z24	X25	Y25	Z25	X26	Y26	Z26	X27	Y27	Z27	X28	Y28	Z28	X29	Y29	Z29	X30	Y30	Z30	X31	Y31	Z31	X32	Y32	Z32	X33	Y33	Z33	X34	Y34	Z34	X35	Y35	Z35	X36	Y36	Z36	X37	Y37	Z37

	62	0.61667	1676.745	651.091	-194.895	1674.464	660.461	-131.527	1661.994	657.442	-256.700	1833.074	379.722	-167.137	1535.708	373.111	-232.765	1909.212	59.556	-167.566	1327.922	120.084	-225.591	1733.729	722.153	-202.163	1743.082	724.417	-108.284	1724.377	719.889	-296.043	1591.744	760.201	-162.684	1584.616	757.963	-217.625	1837.193	375.686	-116.967	1524.375	374.046	-281.454	1822.204	366.815	-212.991	1547.659	374.108	-179.642	1904.958	58.500	-134.354	1321.850	124.115	-259.312	1910.898	68.613	-194.098	1322.470	131.095	-196.925	1611.161	1104.829	-191.400	1691.584	1055.135	-128.865	1690.352	1059.452	-258.594	1685.579	1046.411	-196.603	1702.525	903.134	-200.795	1802.168	444.491	-29.229	1694.638	423.489	-302.495	1798.073	516.277	-90.963	1667.258	497.193	-235.336	1841.844	447.694	-114.261	1619.171	422.364	-220.517	1872.034	152.365	-60.811	1452.988	143.982	-270.346	1868.428	210.845	-119.602	1442.379	225.824	-247.806	2007.788	55.406	-164.410	1372.393	40.754	-218.868
	63	0.62500	1688.550	652.031	-193.771	1686.166	661.786	-130.480	1674.281	657.682	-255.679	1843.838	380.923	-167.559	1550.504	371.349	-233.696	1911.339	58.767	-167.882	1336.379	123.685	-226.810	1745.554	723.081	-201.358	1754.461	726.157	-107.537	1736.648	720.006	-295.178	1603.019	761.033	-163.333	1596.315	758.262	-218.178	1848.850	377.122	-117.453	1539.380	372.416	-282.431	1836.946	371.072	-215.107	1563.487	372.246	-179.320	1907.774	57.987	-134.581	1330.343	127.966	-260.507	1912.434	67.943	-194.343	1331.386	134.869	-198.291	1622.180	1105.486	-190.296	1702.840	1056.530	-127.800	1701.457	1060.935	-257.513	1696.780	1047.607	-195.496	1714.958	904.679	-199.850	1815.243	446.685	-29.772	1709.385	423.442	-302.558	1810.698	519.267	-91.933	1681.660	496.773	-234.828	1855.516	451.491	-115.822	1634.385	421.409	-220.198	1879.013	152.918	-60.953	1462.036	144.262	-271.889	1876.084	211.598	-119.721	1453.714	226.116	-249.111	2010.331	51.822	-165.645	1375.345	41.570	-218.917
	64	0.63333	1700.240	653.059	-192.608	1697.740	663.205	-129.357	1686.426	658.042	-254.570	1854.256	381.993	-167.928	1566.028	369.308	-234.877	1913.071	58.116	-168.149	1345.699	127.302	-228.116	1757.223	724.136	-200.469	1765.696	728.002	-106.705	1748.751	720.270	-294.233	1614.140	761.904	-163.951	1607.827	758.638	-218.694	1860.230	378.457	-117.907	1555.131	370.524	-283.660	1851.119	375.817	-218.049	1579.611	370.256	-178.690	1910.233	57.578	-134.774	1339.674	131.847	-261.781	1914.609	67.449	-194.440	1341.260	138.680	-199.694	1633.277	1106.223	-189.285	1714.546	1058.148	-126.700	1712.712	1062.392	-256.364	1708.047	1048.901	-194.421	1727.907	906.339	-198.598	1828.193	448.893	-30.226	1724.759	423.627	-302.760	1823.755	522.441	-93.271	1696.290	496.299	-234.136	1869.238	455.476	-118.057	1649.809	420.275	-219.610	1885.710	153.456	-61.044	1471.797	144.503	-273.653	1883.398	212.468	-120.233	1465.897	226.217	-250.949	2012.462	48.768	-166.770	1378.859	42.679	-219.052
	65	0.64167	1711.804	654.127	-191.455	1709.181	664.660	-128.206	1698.373	658.517	-253.419	1864.242	382.878	-168.218	1582.261	367.035	-236.301	1914.446	57.579	-168.376	1355.922	130.939	-229.493	1768.723	725.269	-199.542	1776.812	729.867	-105.832	1760.634	720.672	-293.253	1625.147	762.802	-164.459	1619.136	759.098	-219.103	1871.157	379.596	-118.302	1571.572	368.426	-285.126	1862.950	379.534	-220.610	1597.050	367.198	-179.233	1912.329	57.236	-134.944	1349.882	135.759	-263.116	1916.826	66.937	-194.532	1351.973	142.642	-201.138	1644.300	1107.062	-188.373	1725.971	1059.523	-125.636	1724.029	1063.825	-255.165	1719.319	1050.213	-193.393	1740.386	907.854	-197.565	1840.740	450.948	-30.547	1740.671	424.067	-303.210	1836.497	525.355	-94.709	1711.088	495.752	-233.508	1881.943	458.726	-120.404	1666.369	419.192	-219.772	1891.991	153.915	-61.107	1482.294	144.742	-275.611	1890.600	213.097	-120.510	1478.747	226.081	-253.034	2014.214	46.237	-167.743	1383.048	44.125	-219.308
	66	0.65000	1723.215	655.204	-190.351	1720.479	666.107	-127.072	1710.072	659.104	-252.274	1873.729	383.568	-168.411	1599.177	364.605	-237.944	1915.524	57.145	-168.567	1367.075	134.598	-230.923	1780.043	726.438	-198.627	1787.828	731.677	-104.967	1772.258	721.199	-292.288	1636.070	763.737	-164.792	1630.238	759.655	-219.343	1881.465	380.477	-118.603	1588.628	366.200	-286.793	1873.917	381.581	-221.719	1614.928	363.619	-180.026	1914.068	56.942	-135.100	1361.003	139.701	-264.499	1918.573	66.397	-194.792	1363.470	146.730	-202.611	1655.226	1108.012	-187.545	1737.056	1060.692	-124.746	1735.313	1065.233	-253.987	1730.515	1051.489	-192.436	1752.282	909.229	-196.811	1852.590	452.699	-30.704	1757.008	424.782	-304.011	1848.358	527.431	-95.670	1726.079	495.205	-233.287	1893.699	460.889	-121.756	1682.988	417.416	-220.168	1897.710	154.258	-61.156	1493.552	145.021	-277.716	1897.507	213.236	-120.517	1492.276	225.925	-255.181	2015.632	44.203	-168.536	1388.050	45.930	-219.725
	67	0.65833	1734.434	656.286	-189.323	1731.620	667.525	-125.999	1721.488	659.802	-251.181	1882.670	384.087	-168.495	1616.737	362.113	-239.763	1916.377	56.807	-168.729	1379.167	138.286	-232.390	1791.176	727.612	-197.765	1798.752	733.387	-104.153	1783.599	721.836	-291.378	1646.918	764.736	-164.914	1641.140	760.319	-219.379	1891.020	381.083	-118.781	1606.220	363.940	-288.611	1883.894	381.736	-220.962	1633.273	359.771	-181.921	1915.466	56.689	-135.242	1373.054	143.670	-265.914	1919.741	65.906	-195.116	1375.912	150.866	-204.138	1666.121	1109.045	-186.712	1748.076	1061.819	-123.953	1746.507	1066.572	-252.945	1741.577	1052.715	-191.574	1763.855	910.523	-196.139	1863.495	454.043	-30.676	1773.638	425.788	-305.245	1859.142	528.409	-95.765	1741.260	494.693	-233.585	1904.239	461.715	-121.612	1699.982	415.594	-221.384	1902.730	154.477	-61.198	1505.599	145.377	-279.910	1903.842	213.062	-120.518	1506.556	225.932	-257.420	2016.759	42.626	-169.142	1394.039	48.095	-220.350
	68	0.66667	1745.417	657.387	-188.382	1742.586	668.912	-125.012	1732.599	660.610	-250.169	1891.034	384.474	-168.461	1634.894	359.668	-241.706	1917.075	56.556	-168.862	1392.187	142.006	-233.874	1802.113	728.779	-196.985	1809.578	734.986	-103.421	1794.647	722.572	-290.550	1657.686	765.835	-164.820	1651.854	761.098	-219.207	1899.741	381.434	-118.811	1624.265	361.746	-290.519	1891.857	380.602	-219.167	1652.589	355.388	-185.042	1916.545	56.473	-135.366	1386.035	147.661	-267.347	1920.452	65.543	-195.441	1389.422	154.963	-205.705	1676.962	1110.156	-185.902	1758.669	1062.654	-123.211	1757.615	1067.897	-252.086	1752.482	1053.912	-190.827	1774.677	911.627	-195.860	1873.307	454.944	-30.465	1790.425	427.099	-306.949	1868.976	528.434	-95.030	1756.574	494.107	-234.456	1913.336	461.208	-120.535	1717.696	413.846	-223.582	1906.946	154.586	-61.229	1518.456	145.849	-282.132	1909.235	212.805	-120.511	1521.648	226.057	-259.578	2017.634	41.448	-169.571	1401.227	50.597	-221.229
	69	0.67500	1756.132	658.536	-187.525	1753.353	670.287	-124.123	1743.401	661.527	-249.251	1898.800	384.766	-168.303	1653.590	357.382	-243.718	1917.679	56.379	-168.963	1406.112	145.756	-235.355	1812.846	729.945	-196.297	1820.283	736.492	-102.781	1805.408	723.398	-289.814	1668.354	767.063	-164.543	1662.396	761.996	-218.854	1907.606	381.573	-118.679	1642.690	359.714	-292.460	1899.464	379.286	-217.332	1672.843	350.909	-188.618	1917.341	56.293	-135.465	1399.931	151.662	-268.779	1920.894	65.360	-195.740	1404.096	158.760	-207.240	1687.720	1111.419	-185.195	1768.894	1063.348	-122.622	1768.555	1069.253	-251.334	1763.242	1055.116	-190.194	1784.784	912.641	-195.897	1881.997	455.439	-30.085	1807.247	428.728	-309.107	1878.040	527.918	-93.896	1772.104	493.520	-235.897	1921.712	460.119	-119.056	1736.001	412.258	-226.352	1910.310	154.610	-61.233	1532.134	146.465	-284.330	1913.568	212.688	-120.550	1537.645	226.375	-261.719	2018.294	40.601	-169.844	1409.852	53.391	-222.409
